<?xml version="1.0" standalone="no"?>
<!DOCTYPE svg PUBLIC "-//W3C//DTD SVG 20010904//EN"
 "http://www.w3.org/TR/2001/REC-SVG-20010904/DTD/svg10.dtd">
<svg version="1.0" xmlns="http://www.w3.org/2000/svg"
 width="900.000000pt" height="609.000000pt" viewBox="0 0 900.000000 609.000000"
 preserveAspectRatio="xMidYMid meet">
<metadata>
Created by potrace 1.10, written by Peter Selinger 2001-2011
</metadata>
<g transform="translate(0.000000,609.000000) scale(0.100000,-0.100000)"
fill="#000000" stroke="none">
<path d="M3507 5284 c-107 -33 -191 -121 -227 -237 l-20 -64 -68 -6 c-202 -17
-338 -192 -298 -383 23 -108 75 -175 173 -223 57 -28 70 -31 162 -31 l101 0
38 -38 c20 -21 79 -84 131 -140 52 -56 100 -102 107 -102 7 0 33 26 57 58 79
101 164 170 267 219 76 36 165 63 206 63 58 0 103 12 106 29 2 9 -2 45 -9 81
-42 217 -43 233 -22 260 69 88 73 100 74 195 0 75 -4 97 -23 131 -73 132 -234
181 -366 110 l-50 -26 -25 23 c-39 35 -77 57 -139 78 -65 22 -109 23 -175 3z"/>
<path d="M4120 4341 c-225 -36 -432 -219 -510 -451 -31 -92 -32 -276 -2 -370
45 -144 116 -246 232 -335 63 -48 159 -96 209 -104 19 -3 34 -10 33 -16 -1
-11 -27 -18 -137 -34 -74 -11 -139 -30 -175 -52 -8 -5 -22 -12 -30 -15 -8 -4
-37 -25 -63 -47 -49 -40 -49 -40 -100 -29 -29 6 -74 14 -102 17 -91 12 -95 19
-95 146 l0 110 -48 -7 c-33 -4 -63 -1 -97 10 -26 9 -51 13 -55 9 -10 -12 -69
-199 -115 -368 -7 -27 -21 -75 -29 -105 -19 -67 -21 -65 101 -104 271 -88 360
-118 373 -125 13 -7 16 -70 20 -437 l5 -429 180 -6 c99 -3 181 -6 182 -7 14
-12 90 -144 139 -242 33 -65 94 -215 94 -230 0 -15 -14 -17 -122 -17 -116 1
-126 0 -177 -27 -74 -38 -142 -111 -185 -198 -39 -79 -45 -108 -21 -108 8 0
377 0 820 0 443 0 814 0 825 0 22 0 27 32 11 72 -5 13 -12 35 -15 49 -3 14
-24 46 -46 72 -66 74 -174 115 -353 131 -50 4 -60 15 -43 46 7 14 41 79 76
145 87 166 129 244 152 282 l19 32 132 3 132 3 -2 165 c-3 168 -23 360 -49
461 -25 98 -33 92 120 84 l134 -7 12 69 c6 37 15 127 20 198 5 72 12 170 16
219 l7 89 -40 -6 c-33 -6 -51 -1 -97 22 l-57 29 -14 -22 c-8 -11 -26 -58 -40
-103 -19 -58 -32 -83 -44 -85 -32 -3 -77 3 -151 19 -65 14 -81 22 -119 60 -51
52 -132 114 -179 138 -52 26 -287 79 -402 90 -104 10 -130 37 -49 50 76 13
176 66 254 134 96 85 162 185 210 323 l16 46 57 -5 c40 -3 69 0 97 12 44 19
175 146 175 170 0 22 -18 18 -59 -13 -81 -62 -160 -78 -227 -46 -39 18 -47 39
-42 109 3 45 5 49 33 57 17 4 43 21 59 37 23 24 28 39 29 82 1 47 -2 54 -36
85 -31 28 -44 34 -83 34 -26 0 -59 -8 -76 -17 l-29 -18 -45 52 c-77 89 -198
168 -314 206 -53 17 -236 28 -300 18z"/>
<path d="M5404 4070 c-18 -16 -34 -42 -37 -57 -8 -42 20 -98 69 -138 38 -31
44 -42 44 -74 0 -23 -8 -48 -20 -64 -11 -14 -20 -32 -20 -41 0 -14 36 -46 52
-46 11 0 58 85 69 125 13 47 -15 110 -70 160 -23 21 -41 44 -41 52 0 8 11 29
25 45 33 39 29 62 -10 66 -23 2 -38 -5 -61 -28z"/>
<path d="M5594 4082 c-32 -25 -57 -80 -49 -109 3 -14 31 -51 61 -83 43 -45 54
-63 54 -90 0 -18 -7 -41 -15 -50 -37 -41 -10 -110 33 -84 26 16 72 105 72 140
0 33 -35 88 -89 138 -38 36 -38 49 -6 88 36 43 33 68 -7 68 -18 0 -43 -8 -54
-18z"/>
<path d="M5247 3613 c-9 -8 -9 -46 -1 -67 5 -14 44 -16 329 -16 354 0 360 1
353 59 l-3 26 -336 3 c-184 1 -338 -1 -342 -5z"/>
<path d="M2834 3561 c-64 -8 -119 -33 -138 -63 -19 -30 14 -48 131 -72 123
-25 175 -50 318 -155 127 -94 132 -95 180 -75 54 22 72 40 96 93 11 25 37 68
59 96 45 59 47 66 22 88 -16 14 -23 15 -67 3 -28 -8 -63 -19 -79 -25 -22 -9
-38 -9 -65 0 -39 13 -168 69 -216 95 -35 19 -152 26 -241 15z"/>
<path d="M5280 3484 c0 -8 22 -39 50 -68 27 -29 47 -56 43 -59 -3 -4 -36 -7
-72 -7 -119 -1 -381 -36 -399 -54 -10 -10 -13 -19 -7 -24 8 -7 181 -32 305
-45 18 -1 26 -9 30 -29 3 -14 19 -37 35 -49 39 -30 96 -93 143 -159 47 -66 99
-89 154 -65 19 7 46 25 59 39 13 14 28 26 32 26 4 0 32 18 61 40 53 40 111 62
196 74 24 4 50 11 56 17 19 15 -3 68 -29 74 -12 3 -40 9 -62 14 l-40 8 45 6
c25 3 110 13 190 22 188 21 210 25 210 33 -1 23 -25 34 -101 42 -46 6 -122 14
-169 20 -47 5 -115 10 -152 10 -38 0 -68 3 -68 6 0 4 25 33 55 66 30 33 53 64
50 69 -4 5 -134 9 -311 9 -269 0 -304 -2 -304 -16z m300 -264 c10 0 4 -9 -15
-25 -38 -31 -86 -32 -133 -3 -51 32 -33 35 148 28z"/>
</g>
</svg>
